<?xml version="1.0" encoding="UTF-8"?>
<!DOCTYPE svg PUBLIC "-//W3C//DTD SVG 1.1//EN" "http://www.w3.org/Graphics/SVG/1.1/DTD/svg11.dtd">
<svg version="1.2" width="160mm" height="160mm" viewBox="0 0 16000 16000" preserveAspectRatio="xMidYMid" fill-rule="evenodd" stroke-width="28.222" stroke-linejoin="round" xmlns="http://www.w3.org/2000/svg" xmlns:ooo="http://xml.openoffice.org/svg/export" xmlns:xlink="http://www.w3.org/1999/xlink" xmlns:presentation="http://sun.com/xmlns/staroffice/presentation" xmlns:smil="http://www.w3.org/2001/SMIL20/" xmlns:anim="urn:oasis:names:tc:opendocument:xmlns:animation:1.0" xml:space="preserve">
 <defs class="ClipPathGroup">
  <clipPath id="presentation_clip_path" clipPathUnits="userSpaceOnUse">
   <rect x="0" y="0" width="16000" height="16000"/>
  </clipPath>
  <clipPath id="presentation_clip_path_shrink" clipPathUnits="userSpaceOnUse">
   <rect x="16" y="16" width="15968" height="15968"/>
  </clipPath>
 </defs>
 <defs class="TextShapeIndex">
  <g ooo:slide="id1" ooo:id-list="id3 id4 id5 id6 id7"/>
 </defs>
 <defs class="EmbeddedBulletChars">
  <g id="bullet-char-template-57356" transform="scale(0.00048828125,-0.00048828125)">
   <path d="M 580,1141 L 1163,571 580,0 -4,571 580,1141 Z"/>
  </g>
  <g id="bullet-char-template-57354" transform="scale(0.00048828125,-0.00048828125)">
   <path d="M 8,1128 L 1137,1128 1137,0 8,0 8,1128 Z"/>
  </g>
  <g id="bullet-char-template-10146" transform="scale(0.00048828125,-0.00048828125)">
   <path d="M 174,0 L 602,739 174,1481 1456,739 174,0 Z M 1358,739 L 309,1346 659,739 1358,739 Z"/>
  </g>
  <g id="bullet-char-template-10132" transform="scale(0.00048828125,-0.00048828125)">
   <path d="M 2015,739 L 1276,0 717,0 1260,543 174,543 174,936 1260,936 717,1481 1274,1481 2015,739 Z"/>
  </g>
  <g id="bullet-char-template-10007" transform="scale(0.00048828125,-0.00048828125)">
   <path d="M 0,-2 C -7,14 -16,27 -25,37 L 356,567 C 262,823 215,952 215,954 215,979 228,992 255,992 264,992 276,990 289,987 310,991 331,999 354,1012 L 381,999 492,748 772,1049 836,1024 860,1049 C 881,1039 901,1025 922,1006 886,937 835,863 770,784 769,783 710,716 594,584 L 774,223 C 774,196 753,168 711,139 L 727,119 C 717,90 699,76 672,76 641,76 570,178 457,381 L 164,-76 C 142,-110 111,-127 72,-127 30,-127 9,-110 8,-76 1,-67 -2,-52 -2,-32 -2,-23 -1,-13 0,-2 Z"/>
  </g>
  <g id="bullet-char-template-10004" transform="scale(0.00048828125,-0.00048828125)">
   <path d="M 285,-33 C 182,-33 111,30 74,156 52,228 41,333 41,471 41,549 55,616 82,672 116,743 169,778 240,778 293,778 328,747 346,684 L 369,508 C 377,444 397,411 428,410 L 1163,1116 C 1174,1127 1196,1133 1229,1133 1271,1133 1292,1118 1292,1087 L 1292,965 C 1292,929 1282,901 1262,881 L 442,47 C 390,-6 338,-33 285,-33 Z"/>
  </g>
  <g id="bullet-char-template-9679" transform="scale(0.00048828125,-0.00048828125)">
   <path d="M 813,0 C 632,0 489,54 383,161 276,268 223,411 223,592 223,773 276,916 383,1023 489,1130 632,1184 813,1184 992,1184 1136,1130 1245,1023 1353,916 1407,772 1407,592 1407,412 1353,268 1245,161 1136,54 992,0 813,0 Z"/>
  </g>
  <g id="bullet-char-template-8226" transform="scale(0.00048828125,-0.00048828125)">
   <path d="M 346,457 C 273,457 209,483 155,535 101,586 74,649 74,723 74,796 101,859 155,911 209,963 273,989 346,989 419,989 480,963 531,910 582,859 608,796 608,723 608,648 583,586 532,535 482,483 420,457 346,457 Z"/>
  </g>
  <g id="bullet-char-template-8211" transform="scale(0.00048828125,-0.00048828125)">
   <path d="M -4,459 L 1135,459 1135,606 -4,606 -4,459 Z"/>
  </g>
  <g id="bullet-char-template-61548" transform="scale(0.00048828125,-0.00048828125)">
   <path d="M 173,740 C 173,903 231,1043 346,1159 462,1274 601,1332 765,1332 928,1332 1067,1274 1183,1159 1299,1043 1357,903 1357,740 1357,577 1299,437 1183,322 1067,206 928,148 765,148 601,148 462,206 346,322 231,437 173,577 173,740 Z"/>
  </g>
 </defs>
 <g>
  <g id="id2" class="Master_Slide">
   <g id="bg-id2" class="Background"/>
   <g id="bo-id2" class="BackgroundObjects"/>
  </g>
 </g>
 <g class="SlideGroup">
  <g>
   <g id="container-id1">
    <g id="id1" class="Slide" clip-path="url(#presentation_clip_path)">
     <g class="Page">
      <g class="com.sun.star.drawing.PolyPolygonShape">
       <g id="id3">
        <rect class="BoundingBox" stroke="none" fill="none" x="802" y="608" width="13663" height="14420"/>
        <path fill="rgb(184,92,0)" stroke="none" d="M 13878,6126 L 13869,7723 13312,9197 13201,9460 13227,9462 12726,10454 11951,11484 10845,12495 8691,13893 7387,14819 7094,15027 6962,14923 6971,14787 6291,13781 5309,13030 4541,12509 3901,11621 3355,11220 2484,10375 1528,7883 1281,6279 1750,5007 1938,4785 999,3897 803,2326 1631,1021 3048,1200 4020,1806 4806,1704 5112,1551 5204,1459 6224,1090 7472,882 8558,882 9494,1185 10448,1723 11063,2083 11337,1601 12036,835 12707,608 13690,807 14304,1752 14464,3216 13916,4341 13491,4738 13475,5130 13878,6126 Z M 8681,12334 L 9229,11351 9163,9745 8518,9659 7912,9625 7341,9625 6200,9726 6385,11023 6760,12475 7133,12717 8681,12334 Z M 9863,5834 L 9872,5598 9655,5569 9371,5749 9430,5960 9560,5963 9872,5849 9863,5834 Z M 6272,5815 L 6083,5550 5913,5484 5746,5545 5762,5656 5992,6049 6231,5886 6335,5888 6272,5815 Z"/>
       </g>
      </g>
      <g class="com.sun.star.drawing.CustomShape">
       <g id="id4">
        <rect class="BoundingBox" stroke="none" fill="none" x="9500" y="5573" width="331" height="337"/>
        <path fill="rgb(255,255,0)" stroke="none" d="M 9830,5741 C 9830,5770 9822,5799 9808,5825 9793,5851 9773,5872 9748,5886 9722,5901 9694,5909 9665,5909 9636,5909 9608,5901 9583,5886 9557,5872 9537,5851 9522,5825 9508,5799 9500,5770 9500,5741 9500,5712 9508,5683 9522,5657 9537,5631 9557,5610 9583,5596 9608,5581 9636,5573 9665,5573 9694,5573 9722,5581 9748,5596 9773,5610 9793,5631 9808,5657 9822,5683 9830,5712 9830,5741 L 9830,5741 Z"/>
       </g>
      </g>
      <g class="com.sun.star.drawing.CustomShape">
       <g id="id5">
        <rect class="BoundingBox" stroke="none" fill="none" x="5796" y="5551" width="331" height="337"/>
        <path fill="rgb(255,255,0)" stroke="none" d="M 6126,5719 C 6126,5748 6118,5777 6104,5803 6089,5829 6069,5850 6044,5864 6018,5879 5990,5887 5961,5887 5932,5887 5904,5879 5879,5864 5853,5850 5833,5829 5818,5803 5804,5777 5796,5748 5796,5719 5796,5690 5804,5661 5818,5635 5833,5609 5853,5588 5879,5574 5904,5559 5932,5551 5961,5551 5990,5551 6018,5559 6044,5574 6069,5588 6089,5609 6104,5635 6118,5661 6126,5690 6126,5719 L 6126,5719 Z"/>
       </g>
      </g>
      <g class="com.sun.star.drawing.PolyPolygonShape">
       <g id="id6">
        <rect class="BoundingBox" stroke="none" fill="none" x="6304" y="9608" width="2880" height="2928"/>
        <path fill="rgb(255,0,0)" stroke="none" d="M 6314,9683 L 6304,10785 6854,12146 7967,12534 8636,12205 8939,11676 9079,11039 9182,10310 9101,9899 9025,9678 8474,9646 8015,9608 6314,9683 Z"/>
       </g>
      </g>
      <g class="com.sun.star.drawing.ClosedBezierShape">
       <g id="id7">
        <rect class="BoundingBox" stroke="none" fill="none" x="510" y="413" width="14159" height="14727"/>
        <path fill="rgb(0,0,0)" stroke="none" d="M 8862,11297 L 8971,10181 C 8931,10036 8895,9925 8877,9897 8817,9831 8115,9659 7890,9659 7791,9659 7758,9679 7785,9738 7851,9917 7890,10672 7844,11036 7798,11419 7798,11419 7758,11194 7732,11075 7725,10731 7745,10433 7785,9712 7758,9632 7487,9679 7229,9719 6693,9884 6606,9944 6561,9979 6495,10285 6438,10722 L 6570,10961 6627,11292 6630,11343 6666,11486 C 6752,11830 6918,12055 7162,12194 7407,12326 7996,12320 8307,12181 8552,12068 8771,11790 8777,11592 8777,11525 8810,11400 8857,11307 8858,11304 8860,11300 8862,11297 Z M 6871,14821 C 6580,14159 5958,13458 5528,13292 5005,13101 4098,12280 4025,11936 4012,11856 3959,11783 3919,11783 3880,11783 3840,11744 3840,11704 3840,11651 3787,11618 3701,11618 3602,11618 3562,11585 3562,11505 3562,11426 3522,11393 3430,11393 3357,11393 3277,11353 3264,11307 3244,11261 3185,11228 3125,11228 3059,11228 2999,11175 2986,11108 2960,11016 2920,10996 2841,11016 2755,11036 2722,11016 2715,10923 2702,10850 2649,10797 2563,10784 2457,10771 2437,10744 2470,10632 2496,10513 2483,10499 2358,10499 2245,10499 2219,10466 2219,10354 2219,10274 2185,10215 2139,10215 2086,10215 2066,10169 2086,10049 2099,9950 2086,9877 2053,9877 2020,9877 1994,9805 1994,9719 1994,9613 1960,9546 1894,9533 1808,9507 1788,9434 1782,9037 1768,8653 1749,8554 1663,8494 1603,8454 1510,8302 1457,8157 1404,8011 1325,7872 1285,7845 1246,7819 1213,7753 1213,7693 1213,7634 1173,7581 1127,7581 1060,7581 1040,7501 1034,7237 1001,6370 1054,6125 1444,5304 1563,5046 1656,4814 1656,4788 1656,4682 1358,4450 1292,4503 1226,4556 1047,4272 690,3550 531,3232 511,3133 511,2736 511,2359 537,2240 676,1955 915,1465 1371,1035 1828,876 2463,651 2814,724 3476,1201 3602,1287 3800,1406 3913,1459 4025,1518 4125,1591 4125,1631 4125,1730 4647,1723 4733,1624 4773,1578 4925,1505 5084,1452 5236,1399 5455,1273 5567,1168 5673,1062 5819,969 5885,969 6183,962 6726,903 7262,817 7950,704 8493,711 8837,830 8969,876 9115,916 9155,916 9194,916 9313,949 9406,995 9505,1035 9697,1115 9836,1174 9975,1234 10121,1313 10167,1353 10213,1399 10339,1492 10445,1558 10558,1631 10683,1730 10723,1776 10769,1829 10862,1869 10935,1869 11041,1869 11067,1843 11067,1730 11067,1657 11133,1525 11206,1445 11286,1359 11345,1260 11345,1220 11345,1181 11425,1108 11511,1062 11603,1015 11696,923 11716,856 11736,790 11868,665 12007,578 12239,433 12318,413 12715,413 13099,413 13218,439 13503,572 13906,764 14270,1128 14423,1485 14529,1723 14668,2418 14668,2683 14661,3213 14601,3557 14469,3855 14297,4219 14138,4391 13840,4536 13509,4689 13496,4781 13728,5304 13840,5556 14019,6012 14125,6317 14304,6813 14317,6906 14277,7210 14251,7402 14237,7587 14244,7627 14244,7667 14214,7693 14171,7693 14128,7693 14092,7733 14085,7779 14085,7826 14075,7882 14072,7905 14069,7928 14039,8031 14012,8130 13986,8256 13940,8309 13867,8309 13781,8309 13754,8348 13754,8474 13754,8567 13721,8653 13675,8666 13615,8686 13589,8779 13589,8918 13589,9050 13556,9149 13516,9169 13476,9182 13384,9381 13304,9606 13231,9831 13086,10149 12987,10321 12887,10486 12808,10632 12808,10645 12808,10711 12053,11625 11868,11790 11756,11889 11550,12015 11418,12075 11266,12147 11153,12240 11120,12333 11087,12412 10981,12558 10882,12650 10703,12823 9942,13352 9876,13352 9856,13352 9750,13418 9638,13491 9519,13570 9393,13637 9353,13637 9280,13637 8929,13842 8771,13981 8724,14020 8585,14120 8460,14193 8340,14265 8221,14358 8201,14398 8175,14431 8096,14477 8016,14497 7930,14517 7864,14583 7844,14669 7811,14782 7771,14808 7619,14808 7520,14808 7401,14841 7361,14881 7321,14927 7222,15000 7149,15046 L 7010,15139 6871,14821 Z M 7659,14332 C 8043,13968 8340,13789 8473,13835 8552,13862 8559,13855 8499,13815 8433,13769 8446,13743 8552,13690 9214,13339 9598,12995 9883,12492 L 10008,12260 9988,12631 9962,13008 10346,12723 C 10783,12412 11047,11995 11272,11307 L 11398,10916 11405,11307 C 11405,11671 11411,11691 11497,11592 11729,11287 11994,10612 12093,10076 12106,10016 12146,10122 12192,10314 12232,10506 12285,10665 12305,10665 12371,10665 12881,9838 13152,9295 13615,8368 13801,7448 13695,6522 13576,5436 13390,5033 12530,3960 12153,3491 12020,3206 12020,2835 12020,2557 12192,2121 12371,1929 12556,1737 12801,1657 12867,1776 12894,1823 12960,1849 13026,1829 13112,1809 13139,1843 13172,2008 13212,2207 13212,2207 13324,2107 13390,2054 13423,2035 13403,2068 13384,2107 13417,2226 13476,2339 13715,2769 13595,3232 13132,3683 12814,3994 12795,4020 12867,4152 12960,4324 13192,4556 13278,4556 13410,4556 13873,4219 14026,4007 14264,3676 14337,3358 14310,2723 14277,2001 14079,1545 13642,1201 13291,923 13198,896 12636,929 12272,949 12153,982 11961,1108 11636,1320 11478,1518 11378,1816 11279,2101 11239,2590 11305,2630 11325,2650 11345,2693 11345,2743 11345,2792 11100,2590 10802,2299 9969,1479 9724,1340 8923,1194 8718,1161 8532,1108 8513,1081 8499,1048 8360,1029 8201,1029 7877,1029 6587,1174 6170,1254 5746,1340 4687,1988 4237,2438 L 4032,2650 3926,2306 C 3814,1922 3509,1565 3125,1373 2774,1194 2060,1201 1682,1393 1153,1657 868,2326 988,3001 1060,3424 1259,3868 1497,4172 1623,4338 2159,4794 2371,4920 2377,4927 2258,5062 2099,5225 1941,5387 1749,5661 1669,5840 1537,6118 1524,6224 1524,6773 1524,7309 1543,7435 1676,7773 1894,8335 1941,8375 2060,8110 L 2159,7892 2159,8163 C 2166,8501 2424,9699 2530,9844 2602,9950 2609,9950 2662,9818 2688,9745 2735,9606 2755,9513 2794,9354 2801,9361 2847,9626 2947,10202 3026,10400 3344,10883 3522,11155 3694,11393 3721,11413 3754,11439 3794,11347 3820,11201 3860,10903 3926,10870 3979,11122 3999,11221 4111,11459 4237,11658 4356,11850 4442,12042 4422,12088 4409,12128 4422,12181 4456,12200 4495,12227 4502,12200 4475,12141 4442,12042 4449,12042 4561,12141 4694,12260 4727,12379 4614,12306 4568,12280 4568,12300 4621,12359 4700,12465 4767,12492 4714,12399 4647,12300 4767,12339 4859,12452 4912,12511 4939,12578 4919,12598 4899,12617 4906,12624 4939,12617 4972,12604 5197,12756 5442,12942 5687,13134 5998,13372 6137,13478 6620,13842 6878,14159 7037,14590 L 7162,14927 7262,14768 C 7315,14682 7493,14484 7659,14332 Z M 6487,12353 C 6295,12028 6216,11644 6176,10883 6159,10615 6151,10459 6154,10384 L 6089,10178 C 6078,10166 6066,10146 6057,10122 6040,10071 6037,10050 6051,10056 L 6014,9937 C 5961,9890 5920,9791 5832,9580 5687,9229 5667,9123 5673,8673 5693,7845 5971,6919 6348,6423 6520,6198 6415,6178 6216,6396 L 6070,6548 6163,6396 C 6295,6164 6276,6138 5978,6171 5739,6191 5693,6178 5614,6065 5567,5992 5521,5840 5521,5721 5521,5516 5521,5509 5316,5509 5157,5509 5124,5496 5190,5456 5402,5317 5581,5417 5581,5688 5581,5853 5739,6125 5839,6125 5912,6125 5905,6105 5812,5972 5753,5886 5693,5721 5680,5608 5660,5430 5673,5397 5759,5397 5819,5397 5918,5423 5978,5456 6044,5496 6084,5496 6084,5456 6084,5430 6004,5357 5898,5304 5700,5198 5759,5139 5991,5225 6070,5258 6176,5364 6229,5469 6401,5807 6587,6012 6726,6012 6911,6012 7182,5734 7354,5370 7480,5086 7493,5000 7473,4589 7454,4225 7414,4053 7268,3742 7149,3484 7129,3398 7202,3497 7262,3570 7354,3735 7407,3861 7460,3980 7507,4086 7513,4099 7553,4159 7705,4020 7705,3927 7705,3808 7712,3808 7791,3914 7871,4020 7871,4020 7884,3888 7890,3808 7910,4047 7930,4417 7957,5019 7983,5132 8135,5456 8235,5655 8413,5926 8526,6059 L 8744,6303 8982,6184 C 9181,6085 9221,6045 9221,5900 9221,5589 9492,5231 9724,5231 9770,5231 9724,5284 9624,5350 9419,5483 9386,5595 9571,5542 9638,5522 9770,5489 9869,5476 10041,5443 10041,5443 10028,5675 10015,5906 9922,6025 9671,6138 9611,6164 9631,6178 9730,6178 9962,6184 10081,6059 10114,5747 10141,5476 10147,5469 10280,5522 10379,5556 10399,5589 10352,5615 10313,5642 10227,5767 10160,5906 10002,6217 9790,6310 9552,6171 9393,6078 9380,6078 9346,6171 9327,6224 9260,6303 9201,6356 9121,6416 9108,6475 9135,6568 9168,6687 9181,6687 9274,6608 9399,6489 9459,6495 9419,6628 9399,6681 9446,6919 9525,7144 9737,7773 9790,8190 9750,8858 9710,9480 9624,9824 9472,9970 9426,10016 9386,10109 9386,10175 9386,10248 9360,10652 9333,11089 9280,11883 9194,12240 8989,12485 8519,13028 8327,13140 7798,13167 7447,13187 7368,13173 7149,13048 6858,12876 6693,12703 6487,12353 Z M 9148,9454 C 9466,9216 9525,9024 9525,8256 9525,7594 9519,7541 9366,7230 9194,6899 8791,6482 8274,6111 8023,5933 7970,5913 7877,5972 7791,6025 7751,6025 7698,5972 7606,5880 7454,5886 7374,5986 7334,6032 7255,6072 7195,6072 6924,6072 6501,6462 6262,6945 6051,7362 5819,8653 5872,9123 5925,9599 5885,9586 7540,9580 8916,9573 8996,9566 9148,9454 Z M 7513,9308 C 7301,9196 6865,8805 6865,8732 6865,8693 6931,8646 7010,8626 7083,8607 7149,8560 7149,8527 7149,8494 7090,8481 7004,8507 6712,8574 6600,8296 6812,8037 6918,7912 6951,7905 7248,7951 7785,8031 8658,7965 8658,7845 8658,7812 8546,7806 8340,7839 7937,7898 7665,7898 7229,7839 6898,7793 6884,7799 6712,7971 6554,8130 6540,8137 6580,8024 6659,7786 6964,7693 7718,7660 8135,7640 8466,7647 8552,7687 8857,7806 8956,8348 8718,8567 8625,8646 8599,8646 8433,8567 8241,8468 8115,8507 8288,8613 8585,8799 8592,8805 8393,8971 8294,9057 8115,9182 7996,9255 L 7778,9374 7798,9110 7818,8845 7738,9090 C 7639,9394 7646,9381 7513,9308 Z M 6044,5615 C 6011,5582 5938,5569 5892,5589 5812,5615 5812,5642 5865,5741 5918,5853 5931,5853 6017,5767 6084,5701 6090,5661 6044,5615 Z M 9565,5747 C 9552,5814 9585,5847 9664,5847 9744,5847 9783,5814 9783,5728 9783,5589 9598,5602 9565,5747 Z M 7718,5225 C 7665,5046 7659,5053 7659,5350 7652,5522 7672,5681 7692,5701 7758,5767 7778,5430 7718,5225 Z M 4793,9500 C 4793,9533 4780,9546 4767,9533 4727,9493 4793,9321 4846,9321 4866,9321 4952,9460 5038,9626 5117,9798 5164,9937 5137,9937 5104,9937 5038,9824 4985,9685 4899,9447 4793,9348 4793,9500 Z M 10802,9083 C 10842,9090 10915,9037 10955,8957 10994,8885 11061,8838 11100,8851 11153,8871 11206,8779 11266,8567 11332,8342 11385,8256 11458,8256 11550,8256 11597,8157 11716,7713 11736,7640 11775,7601 11822,7620 11934,7660 12020,7342 12020,6866 12020,6522 12033,6456 12100,6482 12146,6502 12199,6489 12219,6462 12258,6389 12139,5728 12060,5622 12007,5549 12007,5549 12093,5622 12239,5754 12364,6336 12325,6661 12298,6813 12272,6906 12258,6866 12206,6714 12146,6820 12120,7124 12080,7475 11875,8031 11775,8031 11736,8031 11676,8143 11636,8289 11583,8461 11537,8534 11484,8514 11438,8494 11405,8521 11405,8574 11405,8713 11160,9043 11080,9017 11047,8997 10975,9063 10928,9156 10875,9249 10816,9308 10783,9288 10756,9268 10683,9368 10617,9500 10558,9632 10525,9679 10544,9599 10637,9242 10723,9070 10802,9083 Z M 4237,8812 C 4237,8660 4138,8673 4111,8832 4098,8918 4058,8858 3966,8613 3900,8428 3840,8223 3840,8163 3840,8064 3840,8064 3761,8163 3688,8256 3675,8236 3562,7865 3496,7647 3403,7429 3357,7382 3258,7283 3277,6482 3390,6217 3489,5972 3522,6078 3423,6350 3317,6654 3311,6932 3416,6892 3476,6873 3502,6959 3522,7270 3542,7495 3582,7733 3608,7806 3655,7932 3655,7932 3727,7759 3833,7508 3873,7541 3873,7879 3880,8057 3926,8256 3992,8395 4105,8607 4111,8607 4151,8481 4191,8362 4204,8388 4297,8686 4396,8997 4568,9268 4568,9103 4568,8997 4667,9030 4700,9149 4714,9216 4700,9255 4667,9249 4634,9242 4594,9288 4581,9348 4542,9566 4482,9540 4363,9235 4290,9063 4237,8878 4237,8812 Z M 2496,4073 C 1980,3636 1768,3325 1768,2988 1768,2822 1848,2723 1907,2822 1980,2935 2040,2815 2013,2624 1987,2465 1994,2432 2066,2458 2119,2485 2179,2451 2219,2379 2252,2312 2311,2273 2344,2299 2377,2319 2437,2286 2477,2233 2549,2134 2563,2140 2814,2293 3145,2498 3450,2935 3450,3193 3450,3451 3291,3749 2993,4040 L 2748,4278 2496,4073 Z M 4872,2928 C 4932,2895 5104,2815 5263,2763 5422,2703 5521,2657 5481,2657 5442,2657 5409,2637 5409,2610 5409,2551 5792,2597 5832,2657 5852,2690 5905,2710 5951,2710 6031,2710 6031,2696 5951,2571 5812,2365 5938,2399 6183,2630 6328,2769 6355,2809 6262,2763 6137,2703 6130,2710 6170,2822 6203,2935 6203,2941 6077,2862 5984,2802 5852,2782 5660,2796 5508,2809 5362,2815 5342,2822 5323,2822 5316,2855 5329,2895 5356,2954 5289,2974 5064,2981 4826,2988 4786,2974 4872,2928 Z M 8996,2835 C 8996,2769 9214,2432 9254,2432 9274,2432 9274,2465 9260,2511 9201,2657 9287,2643 9512,2485 9638,2392 9757,2332 9770,2346 9790,2359 9750,2412 9691,2451 9605,2518 9598,2551 9651,2604 9704,2657 9724,2657 9724,2610 9724,2571 9763,2544 9810,2544 9863,2544 9883,2564 9863,2597 9843,2630 9935,2657 10101,2657 10445,2657 10313,2736 9876,2789 9677,2809 9558,2802 9558,2769 9558,2677 9241,2703 9161,2796 9088,2882 8996,2908 8996,2835 Z"/>
       </g>
      </g>
     </g>
    </g>
   </g>
  </g>
 </g>
</svg>